# Blender v2.79 (sub 0) OBJ File: 'untitled.blend'
# www.blender.org
mtllib untitled.mtl
o Cube_Cube.001
v -1.929363 -2.724567 1.176554
v -1.929363 1.063802 1.176554
v -1.929363 -1.777945 -2.823446
v -1.680510 3.596720 -2.520435
v 2.070637 3.275433 1.176554
v 2.070637 -2.724567 -2.823446
v 2.070637 -0.525900 1.176554
v 2.070637 -2.715881 -2.817655
v 2.066817 -2.718837 -2.823446
vn -0.9994 0.0278 -0.0197
vn 0.0131 0.0556 -0.9984
vn 0.4349 -0.7891 0.4338
vn -0.2244 -0.9483 -0.2244
vn 0.6396 0.4264 -0.6396
vn 0.6553 0.4190 -0.6285
vn -0.4209 0.7613 0.4932
vn 1.0000 0.0000 0.0000
vn -0.0000 0.0000 1.0000
usemtl None
s off
f 1//1 2//1 4//1 3//1
f 3//2 4//2 9//2 6//2
f 6//3 8//3 7//3 1//3
f 3//4 6//4 1//4
f 6//5 9//5 8//5
f 8//6 9//6 4//6 5//6
f 5//7 4//7 2//7
f 7//8 8//8 5//8
f 1//9 7//9 5//9 2//9
