# Blender v2.79 (sub 0) OBJ File: 'untitled.blend'
# www.blender.org
mtllib untitled.mtl
o Cube_Cube.001
v -1.867893 -0.883205 1.671093
v -1.386151 0.642100 1.159407
v -1.856511 -0.840511 -0.402991
v -1.530142 0.542189 -0.082453
v 0.037844 -1.227392 1.285195
v -0.073938 0.657415 1.214168
v 0.321310 -1.033879 -0.359667
v 0.017643 0.557696 -0.081454
v -0.794873 0.594339 1.609390
v -0.560537 0.731512 -0.763451
v -0.811246 -1.405661 1.609390
v -0.802791 -0.372938 1.609390
v 0.194820 -0.359901 1.609390
v -1.805180 -0.372185 1.609390
v -1.805180 -0.427977 -0.390610
v 0.194820 -0.395223 -0.390610
v 0.194820 0.594339 0.633333
v -0.787199 0.945635 0.533104
v 0.194820 -1.405661 0.585581
v -1.805180 -1.405661 0.579636
v -1.805180 -1.405661 0.594854
v 1.734744 -0.377549 -0.427662
v -1.805180 0.594339 0.612118
v -2.330240 -0.400244 0.603533
v -0.770860 -1.405661 0.582711
v -0.845200 -1.405661 -0.390610
v -0.749397 -0.410686 -0.390610
v 0.601642 -0.364564 1.071235
vn -0.9219 -0.2714 0.2765
vn 0.0081 0.0079 -0.9999
vn 0.2768 -0.6677 -0.6911
vn 0.1882 -0.1811 0.9653
vn -0.2558 -0.9330 -0.2531
vn 0.3785 0.9216 -0.0860
vn -0.1566 0.9392 0.3054
vn 0.0396 0.0381 0.9985
vn 0.2096 0.2174 0.9533
vn -0.2544 0.2660 0.9298
vn 0.7758 0.4512 0.4411
vn -0.8208 0.4000 -0.4078
vn 0.4060 -0.0300 -0.9134
vn 0.6838 -0.5104 0.5214
vn -0.9080 -0.2977 -0.2948
vn -0.3335 0.9210 -0.2012
vn -0.2273 -0.9480 0.2227
vn 0.2439 0.6974 -0.6739
vn 0.3317 0.9420 0.0512
vn -0.7689 0.4591 0.4450
vn 0.1173 -0.9864 0.1153
vn 0.1717 -0.9680 -0.1829
vn 0.0181 -0.0186 -0.9997
vn -0.3222 0.0418 -0.9457
vn -0.3270 0.9216 -0.2094
vn 0.3459 0.9288 -0.1333
vn 0.0869 0.9469 0.3097
vn -0.3113 0.9373 0.1566
vn 0.8018 -0.4180 0.4270
vn 0.6822 0.5228 0.5112
usemtl None
s off
f 1//1 14//1 24//1 21//1
f 3//2 15//2 27//2 26//2
f 7//3 16//3 22//3 19//3
f 5//4 13//4 12//4 11//4
f 3//5 26//5 25//5 20//5
f 8//6 10//6 18//6
f 9//7 18//7 2//7
f 11//8 12//8 14//8 1//8
f 12//9 13//9 6//9 9//9
f 14//10 12//10 9//10 2//10
f 13//11 28//11 17//11 6//11
f 15//12 24//12 23//12 4//12
f 16//13 27//13 10//13 8//13
f 19//14 22//14 28//14
f 21//15 24//15 15//15 3//15 20//15
f 23//16 18//16 4//16
f 20//17 25//17 11//17 1//17 21//17
f 17//18 22//18 16//18 8//18
f 17//19 18//19 6//19
f 23//20 24//20 14//20 2//20
f 11//21 25//21 19//21 5//21
f 25//22 26//22 7//22 19//22
f 26//23 27//23 16//23 7//23
f 10//24 27//24 15//24 4//24
f 4//25 18//25 10//25
f 18//26 17//26 8//26
f 6//27 18//27 9//27
f 2//28 18//28 23//28
f 28//29 13//29 5//29 19//29
f 17//30 28//30 22//30
